<?xml version="1.0" encoding="UTF-8" standalone="no"?>
<!-- Created with Inkscape (http://www.inkscape.org/) -->
<svg
   xmlns:svg="http://www.w3.org/2000/svg"
   xmlns="http://www.w3.org/2000/svg"
   version="1.0"
   width="389.76376"
   height="389.76376"
   id="svg1884">
  <defs
     id="defs1886" />
  <g
     id="layer1">
    <g
       transform="matrix(3.543307e-5,0,0,3.543307e-5,-3.286133e-6,-3.286133e-6)"
       style="fill-rule:evenodd"
       id="Layer_x0020_1">
  
  <g
   id="_87076792">
   <path
   d="M 500000,5500020 C 500000,2738790 2738510,500000 5499980,500000 C 8261210,500000 10500000,2738790 10500000,5500020 C 10500000,8261490 8261210,10500000 5499980,10500000 C 2738510,10500000 500000,8261490 500000,5500020 L 500000,5500020 z "
   style="fill:#007042"
   id="_85613576" />

   <path
   d="M 647500,5500020 C 647500,2820140 2820130,647780 5499980,647780 C 8180140,647780 10352500,2820140 10352500,5500020 C 10352500,8179870 8180140,10352780 5499980,10352780 C 2820130,10352780 647500,8179870 647500,5500020 L 647500,5500020 z "
   style="fill:white;fill-opacity:1"
   id="_85612608" />

   <path
   d="M 805530,5500020 C 805530,2907420 2907410,805840 5499980,805840 C 8092860,805840 10194430,2907420 10194430,5500020 C 10194430,8092860 8092860,10194470 5499980,10194470 C 2907410,10194470 805530,8092860 805530,5500020 L 805530,5500020 z "
   style="fill:#007042"
   id="_85611640" />

   <path
   d="M 2598360,5480210 C 2598360,3883400 3892610,2589150 5489140,2589150 C 7085680,2589150 8379930,3883400 8379930,5480210 C 8379930,7076740 7085680,8371030 5489140,8371030 C 3892610,8371030 2598360,7076740 2598360,5480210 z "
   style="fill:white;fill-opacity:1"
   id="_85610944" />

   <path
   d="M 2816580,5629330 C 2814440,5602480 2813090,5583780 2813090,5583780 C 3064920,5681100 3286420,5500540 3501940,5407010 C 3553190,5384230 3642130,5419230 3666490,5358210 C 3687650,5311310 3760330,5242740 3678710,5224030 C 3363690,5181440 3157660,5564000 2831250,5388860 C 2798150,5370700 2806850,5340060 2806850,5340060 C 2874070,4421540 3392160,3533700 4251560,3096680 C 5019860,2657730 6198350,2694340 6921680,3206460 C 7305550,3442030 7673170,3830290 7872710,4224480 C 8063560,4570110 8151120,4957810 8177140,5370150 C 7843960,5622260 7620570,5132640 7281430,5242460 C 7299580,5295330 7309620,5350070 7348100,5394830 C 7649040,5392650 7856180,5707950 8171200,5583780 C 8170650,5599520 8171720,5617940 8171480,5629330 C 8173340,5698180 8170370,5745640 8160330,5827220 C 7882200,5906390 7691870,5612530 7421580,5656980 L 7451670,5809340 C 7701910,5817450 7867020,6058480 8124820,6048160 C 8115600,6104560 8101250,6272940 7968930,6237940 C 7754510,6170990 7672610,6043300 7487740,6043300 C 7465510,6083950 7484220,6131680 7482320,6193220 C 7677510,6223860 7817940,6388410 8012860,6418780 C 7994430,6486010 7974900,6556480 7926930,6603660 C 7768590,6564900 7639000,6420960 7470380,6425270 L 7439730,6565460 C 7600240,6569250 7703810,6711580 7848310,6754130 C 7852110,6812970 7799240,6865840 7768870,6918960 C 7641170,6880200 7543300,6770420 7397180,6778530 C 7398280,6709130 7427550,6660880 7415370,6602040 C 7250780,6650560 7141280,6498230 7019280,6406570 C 7016030,6107010 6700460,5910190 6683650,5629330 C 6680380,5573460 6681480,5529010 6714270,5449560 C 6822980,5186900 6785570,4898970 6671710,4675580 C 6625330,4594230 6576290,4570110 6519350,4535150 C 6602590,4712160 6687170,4916840 6659220,5138060 C 6640000,5307240 6548650,5467750 6547540,5629330 C 6547270,5687070 6559480,5745080 6592270,5803370 C 6724590,6040850 6962330,6266410 6873160,6565460 C 6841680,6659530 6767970,6751960 6756850,6821080 C 6911360,6949330 7058030,7093270 7263000,7101690 C 7336200,7055070 7287670,6861770 7445700,6943080 L 7670440,7056420 C 7645520,7111460 7587230,7174890 7555520,7205260 C 7472280,7164570 7390970,7115780 7287400,7120120 C 7257030,7152390 7230450,7188970 7232630,7235880 C 7305550,7247820 7378750,7280880 7439730,7323470 C 7393380,7384170 7350280,7420790 7299580,7467410 L 7128780,7406400 C 7100590,7447090 7041500,7489640 7061830,7534360 C 7100590,7550650 7147250,7579920 7171370,7601590 C 7084330,7682660 6966130,7764280 6909460,7790580 C 6830290,7532470 6570040,7351380 6592270,7052900 L 6580090,7040680 C 6519350,7109840 6514200,7215000 6543470,7308830 C 6616670,7495880 6791810,7639830 6817840,7845350 C 6787460,7898220 6718340,7908230 6665740,7930730 C 6671710,7560940 6126260,7346480 6470550,6906500 C 6605280,6734350 6791810,6548920 6720240,6297060 C 6647350,6053130 6381270,5889960 6390310,5628500 C 6389760,5622810 6391930,5609520 6393000,5600310 C 6451840,5316180 6610700,5022310 6490080,4711640 C 6450500,4595610 6350450,4458150 6226550,4407460 C 6411460,4618630 6484660,4963750 6379190,5248710 C 6333090,5366870 6252300,5496500 6244700,5629330 C 6240940,5699250 6255300,5768140 6299750,5834020 C 6439900,6061450 6699360,6337710 6543470,6608010 C 6385410,6845760 6108900,7087340 6263170,7400460 C 6370770,7589130 6547820,7774050 6500920,8003930 L 6318180,8064910 C 6439900,7636040 5842680,7384170 6092370,6955300 C 6246880,6725660 6523420,6510130 6366700,6205400 C 6273450,6016720 6093440,5881440 6085850,5695730 C 6087470,5682720 6089640,5645590 6092890,5629330 C 6156080,5295060 6410630,4978690 6232520,4620810 C 6185900,4514820 6092370,4407460 5988800,4346440 L 5982830,4352410 C 6190210,4553580 6253120,4884850 6141410,5150830 C 6088850,5306960 5974690,5461780 5951110,5629330 C 5940280,5708470 5949490,5790360 5995010,5876300 C 6127050,6085610 6367530,6321460 6214640,6577360 C 6062280,6801030 5808240,7018180 5909630,7308830 C 6014550,7553070 6255020,7804660 6128950,8119680 L 5940280,8162270 C 6090470,7855360 5864910,7550650 5732860,7284400 C 5572660,6902430 6078250,6719690 6086400,6369980 C 6084230,6144420 5844850,6016720 5794160,5809340 C 5764340,5707670 5590540,5825320 5462290,5825320 C 5358210,5825320 5226720,5695460 5172230,5851900 C 5107170,6081540 4810580,6250160 4940450,6522630 C 5064340,6764450 5363070,6941180 5263610,7254060 C 5174120,7546580 4879430,7824990 5062690,8162270 C 4987350,8158190 4876460,8170650 4849060,8064910 C 4733030,7656360 5226720,7418610 5074630,7010340 C 5003330,6760100 4680160,6622120 4751740,6321460 C 4804060,6073940 5081670,5900700 5042360,5629330 C 5039120,5606830 5033700,5583500 5025830,5559380 C 4922020,5266580 4710810,4974060 4836880,4632750 C 4871290,4535150 4940450,4451910 5001430,4364630 C 4800260,4472230 4698870,4699700 4702660,4931750 C 4694000,5183340 4880540,5399140 4906560,5629330 C 4917120,5722580 4901660,5818010 4836880,5918850 C 4704840,6097790 4532140,6286740 4611590,6522630 C 4686410,6760100 4983280,6904600 4964850,7180860 C 4962670,7508070 4582840,7711410 4690480,8076850 L 4501530,8016140 C 4426430,7690800 4771790,7524360 4775860,7223690 C 4824660,6878030 4383850,6750330 4410140,6412540 C 4407970,6156870 4633810,5994220 4733030,5778700 C 4755540,5726100 4756090,5676750 4753640,5629330 C 4741450,5391310 4543260,5230800 4562240,4937720 C 4574730,4740390 4641680,4567690 4769650,4419400 C 4592880,4490700 4508570,4688310 4466260,4865080 C 4398760,5153520 4588530,5384510 4608860,5629330 C 4617830,5737490 4591260,5845650 4489310,5955470 C 4343190,6128440 4194620,6345580 4300640,6577360 C 4412320,6833580 4763680,7032570 4611590,7351380 C 4528070,7552830 4328840,7705160 4337220,7942670 C 4284110,7920440 4229340,7898220 4184580,7857530 C 4184580,7554970 4615380,7365470 4410140,7046650 C 4409870,7105770 4403660,7175170 4373560,7266250 C 4299540,7445190 4149890,7599690 4093230,7790580 C 3997800,7753960 3898030,7676450 3818860,7595100 L 3928400,7528390 C 3916460,7487740 3871730,7425140 3855480,7418610 C 3805570,7399630 3737550,7454950 3678710,7473660 C 3627740,7428930 3578940,7387970 3538280,7333470 C 3574860,7229660 3859550,7314770 3715330,7144250 C 3645920,7072150 3520130,7170820 3434990,7211230 L 3318960,7065080 C 3418460,7003820 3517950,6918960 3642130,6943080 C 3672460,6997850 3674640,7079190 3733480,7107670 C 3880430,7144800 4091050,6944980 4251560,6821080 C 4139850,6654630 4048500,6425270 4147720,6223860 C 4227440,6022140 4435100,5852450 4444590,5629330 C 4446760,5578640 4428850,5498910 4416120,5467750 C 4304950,5186070 4267820,4803540 4477370,4553580 C 4363240,4584220 4293560,4727100 4254010,4832290 C 4149340,5101200 4291150,5364730 4296570,5629330 C 4298470,5675130 4300920,5728550 4281930,5772730 C 4174570,5990150 3999700,6181310 3970950,6431240 C 3847330,6510130 3745660,6648660 3568930,6602040 C 3568930,6656260 3577040,6719690 3593290,6772560 C 3453140,6766350 3357440,6869880 3239790,6918960 C 3176640,6898350 3160350,6817010 3135950,6760100 C 3274240,6713480 3374010,6575220 3532310,6577360 C 3550740,6526670 3522030,6479760 3514160,6431240 C 3316790,6343960 3004220,6863670 2977640,6412540 C 3174740,6400590 3300810,6217890 3495730,6199460 L 3501940,6053060 C 3280450,6030840 3131630,6265340 2916630,6235770 L 2867830,6040850 C 3124040,6057140 3276370,5827500 3520130,5815320 C 3552640,5772730 3556710,5709850 3562680,5650730 C 3296460,5616320 3113720,5910740 2831250,5821250 C 2831250,5821250 2821760,5698740 2816580,5629330 z "
   style="fill:black;fill-opacity:1"
   id="_47085368" />

   <path
   d="M 7677510,4132810 C 7598350,4547610 7882720,4840130 8073600,5157040 C 7854280,5303440 7647140,5077910 7439730,5022860 C 7349210,5001980 7240770,4996570 7153460,5010650 C 7027390,4815730 6858490,4632750 6653560,4523210 C 6664120,4462500 6758990,4451910 6824080,4444040 C 7008410,4430750 7163230,4500710 7311520,4577980 C 7326980,4499080 7352450,4435930 7372780,4364630 C 7421580,4244770 7517000,4122810 7641170,4072110 C 7672610,4061000 7685110,4090810 7677510,4132810 z M 6001020,4760960 C 6003710,4773450 6005060,4813830 5976860,4827940 C 5899350,4797570 5791980,4755020 5714440,4815730 C 5669980,4720030 5794160,4740390 5836710,4712160 C 5899350,4710290 5972790,4708120 6001020,4760960 z M 5275790,4791330 L 5275790,4815730 C 5206670,4809510 5094680,4740390 5032080,4827940 C 4991140,4846100 4987350,4801370 4986520,4773450 C 4985450,4737380 4999250,4718130 5025830,4712160 C 5121530,4689690 5228890,4718130 5275790,4791330 z M 3666490,4565520 C 3863620,4490700 4131740,4360550 4343190,4498530 C 4277860,4547880 4211150,4596130 4147720,4651180 C 4044430,4752850 3918360,4876470 3843260,5004710 C 3589260,4954010 3385910,5102310 3172560,5187410 C 3099640,5211020 2983860,5212090 2916630,5157040 C 3117790,4825770 3402170,4520790 3331140,4084290 C 3322760,4031970 3392160,4078040 3416560,4090260 C 3572970,4212260 3648060,4380610 3666490,4565520 z M 5984450,4507750 C 5995570,4532970 6023490,4576080 6001020,4614830 C 5881440,4577980 5696010,4604270 5629330,4644930 C 5525760,4722200 5542020,4880540 5568310,4992490 L 5598680,5016620 C 5649660,5004710 5651800,4939900 5696560,4925270 C 5771660,4943690 5875470,4969990 5946250,4925270 C 6009400,4927160 6020240,5018240 6013480,5059450 C 5968750,5295330 5868980,5551230 5629330,5663190 C 5529800,5711750 5362000,5676750 5306440,5644480 C 5070560,5504330 4938550,5226210 4964850,4974060 C 4969990,4938280 5011470,4904940 5056200,4931750 C 5151900,4996570 5255470,4880540 5343020,4961850 C 5448490,4915220 5385580,4785110 5385580,4687790 C 5300190,4577980 5153800,4593990 5025830,4602100 C 4965920,4581500 5025030,4507750 5043980,4474130 C 5182270,4279210 5446590,4275140 5677850,4303890 C 5784940,4317730 5917780,4390100 5984450,4507750 z M 5842680,3864420 C 6027560,3757090 6209740,3620700 6433410,3606340 C 6421750,3673020 6333090,3840020 6330400,3968260 C 6447490,3919190 6594170,3844370 6744910,3852510 C 6673340,3976930 6515270,4197900 6507160,4413430 C 6301920,4335880 6090470,4242630 5860830,4206010 C 5371220,4122810 4900030,4230410 4495280,4425330 C 4460840,4220400 4361350,4041460 4239350,3870940 C 4295460,3836220 4408250,3882610 4477370,3907280 C 4548160,3933580 4599370,3956600 4660110,3980720 C 4672290,3858720 4601030,3738620 4550330,3626940 C 4596400,3600650 4639780,3620970 4678540,3633160 C 4838780,3693900 4983000,3789320 5129120,3876640 L 5128850,3876080 L 5262780,3548050 L 5013370,3322760 C 4984900,3296740 4983000,3297810 5003330,3296460 C 5036670,3294570 5342470,3278590 5342470,3278590 C 5342470,3278590 5485900,2967880 5487520,2964640 C 5488590,2961120 5490770,2964640 5490770,2964640 L 5635820,3272890 C 5635820,3272890 5973890,3291870 5983380,3292110 C 5993150,3292670 5983380,3299980 5983380,3299980 L 5715540,3554300 L 5843200,3863620 L 5842680,3864420 z "
   style="fill:white;fill-opacity:1"
   id="_85615536" />

   <path
   d="M 9052280,6285950 L 8689530,6285950 L 8973110,6513140 L 8871710,6859870 L 9187010,6665190 L 9503410,6859870 L 9401460,6512580 L 9682590,6285950 L 9322020,6285950 L 9187010,5950840 L 9052280,6285950 z M 1663590,6285950 L 1300590,6285950 L 1584420,6513140 L 1483020,6859870 L 1798320,6665190 L 2114720,6859870 L 2012770,6512580 L 2293900,6285950 L 1933330,6285950 L 1798320,5950840 L 1663590,6285950 z M 3355540,7875680 C 3386190,7933450 3416280,7984670 3437160,8068980 C 3368830,8103150 3283450,8145180 3209150,8181760 C 3190990,8047860 3073070,7916650 2941030,7881930 C 2831250,7854290 2711420,7906050 2630080,8003930 C 2563130,8082820 2542770,8196950 2563130,8296450 C 2592670,8411960 2759950,8534470 2910420,8538270 L 2953240,8539890 C 2908790,8629380 2881940,8684670 2843430,8759760 C 2597810,8751620 2349740,8607390 2258110,8369640 C 2178950,8176620 2213660,7926660 2337560,7765900 C 2488030,7575050 2727680,7522180 2959460,7570980 C 3125390,7610570 3262020,7731740 3355540,7875680 z M 4214950,8497340 C 4339120,8656190 4341020,8901810 4264020,9082650 C 4177260,9266460 4011920,9383590 3830800,9424250 C 3611480,9458690 3404340,9387660 3245760,9235300 C 3105610,9080480 3028340,8858980 3099640,8644010 C 3162520,8410300 3390260,8239500 3623660,8211060 C 3865490,8196950 4088910,8308660 4214950,8497340 z M 3830800,8516040 C 3743520,8475110 3644030,8507900 3574860,8564570 C 3461290,8676280 3387020,8828890 3431750,8991300 C 3450730,9057700 3515500,9108950 3579760,9134690 C 3673010,9169410 3764370,9139040 3837050,9076680 C 3948730,8962830 4028170,8804490 3959050,8644010 C 3942760,8591140 3883670,8532060 3830800,8516040 z M 6385410,8901810 C 6214640,8926250 6051960,8946300 5889580,8972870 C 5895550,9049040 5900420,9111680 5905280,9175620 C 6058200,9154230 6194560,9134690 6336610,9113810 L 6380260,9382760 C 6238220,9403370 6072280,9427490 5926720,9448370 C 5934580,9565500 5945700,9715970 5955980,9845800 C 5834540,9855850 5711470,9862370 5587300,9870480 L 5512750,8723970 C 5787910,8697680 6076630,8660270 6339610,8617440 C 6353690,8703650 6367530,8790960 6385410,8901810 z M 7329950,8421690 L 6889960,8636140 L 6966410,8816710 C 7102210,8754620 7216890,8702580 7354070,8638870 C 7383890,8704470 7417510,8780640 7451400,8855740 C 7325080,8915100 7192770,8971770 7061280,9033060 C 7087580,9093490 7104940,9134690 7147490,9231220 L 7626270,9009450 L 7730110,9243680 C 7453290,9371370 7152390,9508560 6890480,9623790 L 6479240,8576510 C 6741120,8462650 6986180,8344450 7235320,8213200 C 7266240,8277190 7329950,8421690 7329950,8421690 z M 5348720,9005930 C 5178750,8977460 5017440,8947090 4854240,8922970 C 4835530,9001580 4819520,9087550 4804610,9147190 C 4955630,9173760 5077630,9194090 5234310,9220940 L 5194450,9482260 C 5048880,9457580 4894890,9434010 4742800,9406610 C 4714050,9523190 4685060,9659300 4652790,9787240 C 4536210,9759080 4420740,9729260 4294390,9696990 L 4571730,8571360 C 4841740,8629900 5118840,8680870 5382330,8720180 C 5372320,8806660 5359830,8905090 5348720,9005930 z M 8115330,7766970 L 7751270,8094490 L 7875160,8246850 C 7988190,8150050 8084160,8068190 8198570,7969480 C 8245470,8023980 8298340,8087690 8351730,8151150 C 8246540,8242780 8135410,8333860 8025600,8429000 C 8067630,8479740 8095830,8514420 8163060,8595760 L 8562390,8250370 L 8726700,8447190 C 8495990,8646180 8244400,8860880 8024530,9044170 L 7337820,8149530 C 7558210,7967860 7763720,7787850 7967070,7592930 C 8014210,7645800 8115330,7766970 8115330,7766970 z M 9646290,4181610 C 9752000,4352410 9792690,4577980 9737920,4785110 L 9512350,4772900 C 9543000,4636820 9564950,4466300 9469520,4352410 C 9441050,4317970 9390350,4297670 9354010,4315830 C 9231220,4414220 9359710,4634370 9288130,4813830 C 9255340,4899760 9217100,4957810 9115990,4998740 C 8988020,5047260 8829710,5022860 8732120,4925270 C 8541230,4726270 8451780,4417220 8573500,4157210 L 8811280,4157210 C 8770870,4259160 8742400,4403110 8780910,4523210 C 8801240,4573900 8825640,4638720 8884450,4657150 C 9075610,4678540 8956300,4370870 8991020,4251020 C 9014040,4159390 9065290,4055820 9164790,4011090 C 9347800,3921640 9561150,4023310 9646290,4181610 z M 9048480,2985790 C 8942220,3065200 8808280,3164420 8703090,3243590 C 8866570,3262020 9063670,3281830 9233640,3300810 C 9296000,3416290 9347520,3511990 9416650,3639680 L 8805830,3595230 C 8684660,3813720 8567290,4021930 8451780,4230410 C 8380750,4126840 8325710,3992660 8256580,3876910 C 8334920,3722370 8425480,3541810 8503550,3392160 C 8379680,3483790 8255240,3576520 8126470,3672780 L 7903320,3374290 C 8205090,3149270 8823470,2688920 8823470,2688920 L 9048480,2985790 z M 8439600,2267610 C 8508450,2352750 8555350,2458490 8585990,2566370 C 8500580,2611930 8434970,2654480 8353900,2700310 C 8333850,2574520 8264450,2446550 8140830,2383390 C 8081710,2348950 7994430,2342710 7927480,2365210 C 7823910,2403720 7734420,2493180 7695670,2596740 C 7661230,2696520 7700020,2793840 7756680,2871110 C 7835850,2960560 7941560,3007190 8061660,3011260 C 8006620,3100200 7971660,3157380 7927480,3224610 C 7728490,3196170 7541160,3086630 7427550,2901720 C 7330230,2745040 7324260,2505390 7409120,2340810 C 7498570,2160000 7675340,2044220 7866470,2017680 C 8081200,1994620 8303210,2100880 8439600,2267610 z M 6594720,2003560 C 6554580,2107920 6538050,2185470 6711570,2241860 C 6805890,2272510 6863630,2229400 6904040,2124770 L 7163500,1489270 L 7528390,1649510 L 7284400,2261910 C 7150770,2610310 6943910,2654760 6588750,2522480 C 6191870,2373900 6097790,2192270 6218680,1877490 L 6445870,1246100 L 6827600,1372420 L 6594720,2003560 z M 5961950,1220880 C 6041120,1291900 6057650,1407930 6043810,1487370 C 6028110,1560050 5980660,1631600 5915600,1682290 C 5995010,1741410 6072280,1793180 6089640,1907590 C 6110520,2017400 6078250,2104960 6019450,2182230 C 5895550,2322380 5707670,2298250 5529010,2304500 L 5047260,2304230 L 5043980,2261400 L 4994390,1162590 C 5247600,1162590 5318350,1162070 5551230,1162070 C 5862730,1162070 5905840,1181020 5961950,1220880 z M 5592160,1375690 C 5546880,1375420 5435200,1375970 5386130,1375970 C 5389100,1444550 5392100,1524780 5395340,1591490 C 5451460,1591490 5544190,1590940 5601650,1590940 C 5676200,1585800 5677300,1511770 5677850,1484130 C 5675130,1447790 5667020,1385700 5592160,1375690 z M 5611970,1805910 C 5566970,1805400 5454740,1805910 5405900,1805910 C 5408910,1874800 5411630,1968880 5414880,2035550 C 5471540,2035550 5563970,2035000 5621700,2035000 C 5696280,2029860 5697350,1949070 5697900,1920870 C 5695180,1885080 5686790,1815680 5611970,1805910 z M 3964980,2665870 C 3824310,2322380 3651070,1920080 3523650,1597980 C 3683850,1530200 3896960,1439680 4075630,1363750 C 4239900,1293010 4457050,1295970 4603170,1446720 C 4676370,1528030 4705670,1654930 4696730,1734100 C 4688310,1804290 4661180,1868280 4609410,1934440 C 4725990,2042350 4880540,2186300 5011750,2308020 L 4627570,2391500 C 4497460,2286870 4426430,2231030 4311480,2136120 C 4266200,2155380 4229060,2170840 4182680,2190370 L 4322310,2499420 L 3964980,2665870 z M 4162630,1620760 C 4095120,1649510 4021370,1680120 3963640,1704520 C 3997010,1779620 4024930,1840360 4068270,1935780 L 4267270,1851470 C 4310410,1821650 4313100,1751970 4293050,1701280 C 4265090,1641360 4204660,1607470 4162630,1620760 z M 2831520,2408070 L 2982510,2758050 L 3154650,2605680 L 2831520,2408070 z M 2447060,2389610 L 2881390,2023610 L 3933540,2683780 L 3630190,2883570 L 3398410,2761850 L 3105340,3018300 L 3206730,3262300 L 2941580,3559160 L 2447060,2389610 z M 2097640,2768090 L 2340800,2910970 L 2160520,3203210 L 2864030,3664910 L 2678600,3968260 L 1963150,3523650 L 1791830,3802060 L 1557050,3645100 L 2097640,2768090 z M 1685290,4023310 C 1559500,4120910 1470010,4262960 1496310,4425330 C 1501730,4450010 1519920,4489320 1558670,4493670 C 1658440,4500150 1703450,4389030 1740310,4315830 C 1798870,4199520 1900820,4061790 2045040,4047430 C 2168940,4039560 2274400,4072110 2355710,4169430 C 2479610,4317970 2457380,4557370 2398540,4730340 C 2343530,4858550 2258110,4988420 2136390,5071940 L 1916800,4937720 C 2036900,4854240 2162690,4718130 2178950,4565520 C 2178950,4511020 2166760,4437830 2099810,4431580 C 1985130,4426710 1945540,4640890 1849840,4736320 C 1776650,4811650 1685290,4868320 1569510,4852340 C 1461630,4846100 1370240,4778870 1307360,4693730 C 1187540,4511020 1246340,4242630 1319540,4102480 C 1364300,4023310 1417170,3944140 1490370,3882880 C 1551910,3926780 1618860,3976410 1685290,4023310 z "
   style="fill:white;fill-opacity:1"
   id="_46965384" />

   <path
   d="M 5751290,3937890 L 5720680,3968260 C 5568310,3952010 5395890,3964470 5263610,3974510 C 5247320,3958220 5214780,3933820 5245420,3913490 L 5476960,3736730 C 5572660,3791500 5674060,3862520 5751290,3937890 z M 5708460,5321630 C 5659940,5394830 5586740,5486460 5489140,5480210 C 5379610,5488350 5354960,5398900 5275790,5346270 L 5269550,5309410 C 5415950,5331640 5576460,5303440 5708460,5321630 z M 5611140,5150830 C 5574280,5228070 5456360,5179300 5391550,5193380 C 5369040,5185240 5383400,5161390 5379610,5144860 C 5444420,5100130 5560170,5094160 5611140,5150830 z "
   style="fill:black;fill-opacity:1"
   id="_85710816" />

  </g>

 </g>
  </g>
</svg>
